<?xml version="1.0" encoding="UTF-8"?>
<svg xmlns="http://www.w3.org/2000/svg" width="160" height="48" viewBox="0 0 160 48">
  <defs>
    <linearGradient id="g" x1="0" x2="1">
      <stop offset="0" stop-color="#2aa39a"/>
      <stop offset="1" stop-color="#1f7d76"/>
    </linearGradient>
  </defs>
  <rect width="160" height="48" rx="10" fill="#fff0" />
  <!-- QR-ish icon -->
  <g transform="translate(8,8)">
    <rect x="0" y="0" width="24" height="24" rx="4" fill="#e7c789"/>
    <rect x="4" y="4" width="6" height="6" rx="1" fill="#315656"/>
    <rect x="14" y="4" width="6" height="6" rx="1" fill="#315656"/>
    <rect x="4" y="14" width="6" height="6" rx="1" fill="#315656"/>
    <rect x="14" y="14" width="3" height="3" rx="1" fill="#315656"/>
    <rect x="18" y="18" width="2" height="2" rx="0.6" fill="#315656"/>
    <rect x="11" y="18" width="2" height="2" rx="0.6" fill="#315656"/>
  </g>
  <!-- Wordmark -->
  <g transform="translate(42,12)" fill="url(#g)">
    <path d="M0 14c0-7 5-12 12-12 3 0 5 .7 7 2v-2h6v28h-6v-2c-2 1.3-4 2-7 2C5 32 0 27 0 20v-6zm7 6c0 4 3 7 7 7s7-3 7-7-3-7-7-7-7 3-7 7z"/>
    <path d="M36 32c-7 0-12-5-12-12s5-12 12-12 12 5 12 12-5 12-12 12zm0-19c-4 0-7 3-7 7s3 7 7 7 7-3 7-7-3-7-7-7z"/>
    <path d="M55 8h6v2c2-1.3 4-2 7-2 7 0 12 5 12 12v12h-6V20c0-4-3-7-7-7s-7 3-7 7v12h-6V8z"/>
    <circle cx="99" cy="20" r="12"/>
    <rect x="95" y="8" width="8" height="24" fill="#fff"/>
    <rect x="93" y="18" width="20" height="4" fill="#fff"/>
  </g>
</svg>
